<svg xmlns="http://www.w3.org/2000/svg" xmlns:xlink="http://www.w3.org/1999/xlink" version="1.1" x="0px" y="0px" viewBox="0 0 2000 2500" style="enable-background:new 0 0 2000 2000;" xml:space="preserve"><g><path d="M1632.9,890.6h-301.5c-6.5,0-11.7,5.2-11.7,11.7v86h-45.1V629.5c0-6.5-5.2-11.7-11.7-11.7h-84.1v-86   c0-6.5-5.2-11.7-11.7-11.7H865.5c-6.5,0-11.7,5.2-11.7,11.7v86h-74.7V404.9c0-6.5-5.2-11.7-11.7-11.7h-87v-72.7   c0-6.5-5.2-11.7-11.7-11.7H367.1c-6.5,0-11.7,5.2-11.7,11.7v195.4c0,6.5,5.2,11.7,11.7,11.7h301.5c6.5,0,11.7-5.2,11.7-11.7v-99.3   h75.3v425.8h-75.3V743c0-6.5-5.2-11.7-11.7-11.7H367.1c-6.5,0-11.7,5.2-11.7,11.7v195.4c0,6.5,5.2,11.7,11.7,11.7h301.5   c6.5,0,11.7-5.2,11.7-11.7v-72.7h87c6.5,0,11.7-5.2,11.7-11.7V641.2h74.7v86c0,6.5,5.2,11.7,11.7,11.7H1167   c6.5,0,11.7-5.2,11.7-11.7v-86h72.3v355.9c-0.2,0.9-0.6,1.9-0.6,2.9s0.3,1.9,0.6,2.9v355h-72.3v-85.1c0-6.5-5.2-11.7-11.7-11.7   H865.5c-6.5,0-11.7,5.2-11.7,11.7v86h-74.7v-212.9c0-6.5-5.2-11.7-11.7-11.7h-87v-72.7c0-6.5-5.2-11.7-11.7-11.7H367.1   c-6.5,0-11.7,5.2-11.7,11.7V1257c0,6.5,5.2,11.7,11.7,11.7h301.5c6.5,0,11.7-5.2,11.7-11.7v-99.3h75.3v425.8h-75.3v-99.3   c0-6.5-5.2-11.7-11.7-11.7H367.1c-6.5,0-11.7,5.2-11.7,11.7v195.4c0,6.5,5.2,11.7,11.7,11.7h301.5c6.5,0,11.7-5.2,11.7-11.7v-72.7   h87c6.5,0,11.7-5.2,11.7-11.7v-212.9h74.7v86c0,6.5,5.2,11.7,11.7,11.7H1167c6.5,0,11.7-5.2,11.7-11.7v-86.9h84.1   c6.5,0,11.7-5.2,11.7-11.7v-357.9h45.1v86c0,6.5,5.2,11.7,11.7,11.7h301.5c6.5,0,11.7-5.2,11.7-11.7V902.3   C1644.6,895.8,1639.3,890.6,1632.9,890.6z"/></g><text x="0" y="2015" fill="#000000" font-size="5px" font-weight="bold" font-family="'Helvetica Neue', Helvetica, Arial-Unicode, Arial, Sans-serif">Created by Akhmad Sobahus Surur</text><text x="0" y="2020" fill="#000000" font-size="5px" font-weight="bold" font-family="'Helvetica Neue', Helvetica, Arial-Unicode, Arial, Sans-serif">from the Noun Project</text></svg>