<svg xmlns="http://www.w3.org/2000/svg" version="1.1" viewBox="-5.0 -10.0 110.0 135.0">
 <path d="m75.855 96.676c0 1.2656-1.0273 2.2969-2.2969 2.2969-1.2656 0-2.2969-1.0273-2.2969-2.2969v-51.359c0-1.6758 0.68359-3.1992 1.7852-4.3008s2.625-1.7852 4.3008-1.7852h9.4766c1.6758 0 3.1992 0.68359 4.3008 1.7852s1.7852 2.625 1.7852 4.3008v51.359c0 1.2656-1.0273 2.2969-2.2969 2.2969s-2.2969-1.0273-2.2969-2.2969v-51.359c0-0.40625-0.16797-0.78125-0.44141-1.0547-0.27344-0.27344-0.64453-0.44141-1.0547-0.44141h-9.4766c-0.40625 0-0.78125 0.16797-1.0547 0.44141-0.27344 0.27344-0.44141 0.64453-0.44141 1.0547v51.359zm16.684-85.805c-8.75 11.094-33.176 33.914-86.055 33.914-1.2695 0-2.2969-1.0273-2.2969-2.2969 0-1.2656 1.0273-2.2969 2.2969-2.2969 55.832 0 78.309-25.895 84.273-34.574h-18.168c-1.2656 0-2.2969-1.0273-2.2969-2.2969 0-1.2695 1.0273-2.2969 2.2969-2.2969h22.246c1.2656 0 2.2969 1.0273 2.2969 2.2969v22.246c0 1.2656-1.0273 2.2969-2.2969 2.2969-1.2656 0-2.2969-1.0273-2.2969-2.2969zm-85.078 85.805c0 1.2656-1.0273 2.2969-2.2969 2.2969-1.2656 0-2.2969-1.0273-2.2969-2.2969v-29.633c0-1.668 0.68359-3.1875 1.7852-4.293l0.015625-0.015625c1.1055-1.0977 2.6211-1.7812 4.2852-1.7812h9.4766c1.6758 0 3.1992 0.68359 4.3008 1.7891 1.1016 1.1016 1.7852 2.625 1.7852 4.3008v29.633c0 1.2656-1.0273 2.2969-2.2969 2.2969s-2.2969-1.0273-2.2969-2.2969v-29.633c0-0.41016-0.16797-0.78125-0.44141-1.0547-0.27344-0.27344-0.64453-0.44141-1.0547-0.44141h-9.4766c-0.41406 0-0.78906 0.16406-1.0547 0.43359l-0.007812 0.007812c-0.26562 0.26562-0.43359 0.64062-0.43359 1.0547v29.633zm34.199 0c0 1.2656-1.0273 2.2969-2.2969 2.2969-1.2656 0-2.2969-1.0273-2.2969-2.2969v-37.309c0-1.6758 0.68359-3.1992 1.7891-4.3008 1.1016-1.1016 2.625-1.7852 4.3008-1.7852h9.4766c1.6758 0 3.1992 0.68359 4.3008 1.7852 1.1016 1.1016 1.7852 2.625 1.7852 4.3008v37.309c0 1.2656-1.0273 2.2969-2.2969 2.2969s-2.2969-1.0273-2.2969-2.2969v-37.309c0-0.40625-0.16797-0.78125-0.44141-1.0547-0.27344-0.27344-0.64453-0.44141-1.0547-0.44141h-9.4766c-0.40625 0-0.78125 0.16797-1.0547 0.44141-0.27344 0.27344-0.44141 0.64453-0.44141 1.0547v37.309z"/>
<text x="0.0" y="117.5" font-size="5.0" font-weight="bold" font-family="Arbeit Regular, Helvetica, Arial-Unicode, Arial, Sans-serif" fill="#000000">Created by YANDI RS</text><text x="0.0" y="122.5" font-size="5.0" font-weight="bold" font-family="Arbeit Regular, Helvetica, Arial-Unicode, Arial, Sans-serif" fill="#000000">from Noun Project</text></svg>